<svg class="svg-icon" style="width: 1em; height: 1em;vertical-align: middle;fill: currentColor;overflow: hidden;" viewBox="0 0 1024 1024" version="1.1" xmlns="http://www.w3.org/2000/svg"><path d="M146.285714 219.428571h658.285715v585.142858a146.285714 146.285714 0 0 1-146.285715 146.285714H292.571429a146.285714 146.285714 0 0 1-146.285715-146.285714V219.428571z m73.142857 73.142858v512a73.142857 73.142857 0 0 0 73.142858 73.142857h365.714285a73.142857 73.142857 0 0 0 73.142857-73.142857V292.571429H219.428571z" fill="#999999" /><path d="M365.714286 438.857143m36.571428 0l0 0q36.571429 0 36.571429 36.571428l0 219.428572q0 36.571429-36.571429 36.571428l0 0q-36.571429 0-36.571428-36.571428l0-219.428572q0-36.571429 36.571428-36.571428Z" fill="#999999" /><path d="M512 438.857143m36.571429 0l0 0q36.571429 0 36.571428 36.571428l0 219.428572q0 36.571429-36.571428 36.571428l0 0q-36.571429 0-36.571429-36.571428l0-219.428572q0-36.571429 36.571429-36.571428Z" fill="#999999" /><path d="M73.142857 219.428571m36.571429 0l731.428571 0q36.571429 0 36.571429 36.571429l0 0q0 36.571429-36.571429 36.571429l-731.428571 0q-36.571429 0-36.571429-36.571429l0 0q0-36.571429 36.571429-36.571429Z" fill="#999999" /><path d="M585.142857 292.571429V168.228571a21.942857 21.942857 0 0 0-21.942857-21.942857H387.657143a21.942857 21.942857 0 0 0-21.942857 21.942857V292.571429H292.571429V146.285714a73.142857 73.142857 0 0 1 73.142857-73.142857h219.428571a73.142857 73.142857 0 0 1 73.142857 73.142857v146.285715H585.142857z" fill="#999999" /></svg>